<?xml version="1.0" encoding="UTF-8" standalone="no"?><!DOCTYPE svg PUBLIC "-//W3C//DTD SVG 1.1//EN" "http://www.w3.org/Graphics/SVG/1.1/DTD/svg11.dtd"><svg width="100%" height="100%" viewBox="0 0 540 540" version="1.1" xmlns="http://www.w3.org/2000/svg" xmlns:xlink="http://www.w3.org/1999/xlink" xml:space="preserve" xmlns:serif="http://www.serif.com/" style="fill-rule:evenodd;clip-rule:evenodd;stroke-linejoin:round;stroke-miterlimit:2;"><rect x="-40.028" y="-32.829" width="567.118" height="561.428" style="fill:none;"/><path d="M493.766,218.441c-0.109,15.178 -10.307,28.591 -25.01,32.896l-0.443,0.131l-172.794,47.897l-48.382,171.06l-0.133,0.439c-4.355,14.551 -17.9,24.644 -33.23,24.76l-0.664,-0c-15.021,0.139 -28.528,-9.328 -33.385,-23.4l-144.527,-385.741c-0.046,-0.113 -0.083,-0.231 -0.11,-0.351c-1.279,-3.675 -1.931,-7.536 -1.931,-11.423c-0,-19.249 16,-35.089 35.445,-35.089c3.897,-0 7.768,0.636 11.456,1.883l0.355,0.11l389.716,143.12c14.444,4.888 24.061,18.602 23.637,33.708Z" style="fill:#002b44;fill-rule:nonzero;"/><g id="navigation-arrow-fill--1-.svg" serif:id="navigation-arrow-fill (1).svg"></g></svg>